<?xml version="1.0" encoding="UTF-8" standalone="no"?>
<!DOCTYPE svg PUBLIC "-//W3C//DTD SVG 1.1//EN" "http://www.w3.org/Graphics/SVG/1.1/DTD/svg11.dtd">
<svg width="100%" height="100%" viewBox="0 0 1095 960" version="1.1" xmlns="http://www.w3.org/2000/svg" xmlns:xlink="http://www.w3.org/1999/xlink" xml:space="preserve" xmlns:serif="http://www.serif.com/" style="fill-rule:evenodd;clip-rule:evenodd;stroke-linejoin:round;stroke-miterlimit:2;">
    <g id="Fondo" transform="matrix(1,0,0,1,185,84)">
        <path d="M679.813,296.829L678.5,295.255L677.5,295.981L676.5,296.719C657.395,305.504 656.653,303.779 638.31,314.165C566.575,354.779 515.898,426.09 432.532,453.594C303.908,496.028 216.527,379.113 112.625,405.9C81.239,413.992 4.972,461.806 31.407,576.524C34.745,591.006 52.223,631.925 63.339,640.229C57.97,642.277 58.023,640.004 52.592,633.425C20.2,594.191 -23.124,503.429 43.793,391.67C84.675,323.391 118.283,289.787 126.036,282.034C192.408,215.668 251.834,213.537 270.541,216.211C328.044,224.43 405.748,272.082 454.489,271.084C479.082,270.581 504.548,252.923 515.429,265.56C525.285,277.006 500.554,334.01 441.437,343.066C390.765,350.829 321.68,303.274 299.65,312.855C283.358,319.94 304.943,357.048 351.672,375.057C360.733,378.548 402.281,394.561 472.612,364.776C575.567,321.175 619.985,267.271 673.493,263.34C693.961,261.836 702.817,274.367 679.813,296.829Z" style="fill:rgb(199,21,45);fill-opacity:1;"/>
        <path d="M205.675,215.98C205.367,216.107 167.123,229.412 129.571,264.768C128.82,265.475 127.632,265.095 128.254,263.507C140.185,233.01 140.492,232.52 138.895,230.226C132.282,220.729 113.673,200.124 115,196.674C117.678,189.711 143.81,142.798 148.513,143.419C150.806,143.721 181.479,161.458 183.333,160.234C186.358,158.238 192.692,146.248 216.104,125.094C219.402,122.114 212.857,109.463 205.839,82.416C204.832,78.537 205.958,78.458 212.769,72.845C216.845,69.486 251.651,44.188 255.546,46.434C257.124,47.343 278.47,78.331 280.444,78.728C284.052,79.453 282.974,75.385 323.555,62.653C323.788,62.58 325.642,61.998 325.794,60.576C326.852,50.701 328.347,17.233 330.737,15.916C334.3,13.953 384.984,6.212 386.708,11.414C388.548,16.966 396.87,51.676 398.453,52.559C403.054,55.126 405.089,50.563 442.448,58.732C447.143,59.758 447.387,55.626 453.831,42.669C464.213,21.795 463.549,21.022 465.464,20.417C468.217,19.546 518.48,37.466 518.592,43.498C518.691,48.892 513.06,86.209 515.82,88.063C522.761,92.725 523.115,92.053 535.847,101.018C552.541,112.773 553.419,117.149 557.157,114.074C569.813,103.663 569.468,103.375 582.146,93.073C584.87,90.859 585.479,89.044 589.449,92.56C608.369,109.319 627.613,133.778 627.385,136.484C627.052,140.429 608.116,173.528 609.633,176.44C611.451,179.929 612.986,179.004 633.974,219.17C635.692,222.457 669.598,209.827 672.196,212.763C674.053,214.861 689.962,253.812 687.336,254.01C684.318,254.238 665.025,246.488 618.728,270.933C610.607,275.222 610.688,275.239 602.673,279.793L601.5,278.113L600.5,278.664C600.051,278.327 599.305,279.197 598.891,277.456C596.997,269.487 554.502,132.604 413.456,113.73C327.955,102.289 261.294,151.781 233.094,184.129C222.351,196.453 222.605,196.546 212.653,209.633C208.148,215.556 204.38,212.72 204.525,214.5C204.576,215.123 205.624,215.357 205.675,215.98Z" style="fill:rgb(17,154,79);fill-opacity:1;"/>
        <path d="M679.813,296.829C678.476,298.053 671.131,304.775 662.203,311.09C568.199,377.573 556.213,409.381 502.157,448.005C360.414,549.281 258.013,469.32 170.521,449.414C59.655,424.189 13.936,508.828 52.594,607.462C63.853,636.19 66.566,636.874 63.339,640.229C52.223,631.925 34.745,591.006 31.407,576.524C4.972,461.806 81.239,413.992 112.625,405.9C216.527,379.113 303.908,496.028 432.532,453.594C515.898,426.09 566.575,354.779 638.31,314.165C656.653,303.779 657.395,305.504 676.5,296.719L677.5,295.981L678.5,295.255L679.813,296.829Z" style="fill:rgb(165,19,37);fill-opacity:1;"/>
        <path d="M435.62,735.121C427.807,737.925 426.005,735.3 422.953,740.761C413.179,758.247 401.1,781.443 374.504,782.032C363.183,782.282 357.79,772.639 356.986,771.201C353.889,765.663 351.536,777.736 336.43,781.129C315.834,785.754 309.231,771.396 307.511,771.569C307.435,771.577 293.296,787.019 280.73,780.08C277.036,778.041 276.481,772.306 273.702,774.752C252.623,793.316 244.597,771.448 242.629,771.854C242.623,771.856 227.351,787.798 213.691,779.215C210.693,777.331 208.611,772.309 208.326,771.622C208.044,771.624 207.761,771.625 207.478,771.627C207.193,771.729 207.126,770.879 206.842,770.981C206.261,771.188 199.708,783.523 184.452,781.816C177.482,781.036 174.945,773.472 174.599,772.441C173.341,768.691 164.794,784.231 152.48,781.604C126.957,776.16 163.285,721.426 165.765,719.999C167.305,719.113 179.644,721.062 168.255,742.373C167.896,743.045 150.456,772.439 158.423,773.853C166.404,775.27 182.764,743.412 184.31,740.402C191.285,726.819 197.082,712.826 202.124,721.734C209.986,735.624 179.504,767.188 187.833,774.109C193.964,779.205 209.003,753.788 209.666,751.548C211.42,745.625 221.823,710.484 244.891,682.837C255.8,669.764 262.746,686.228 261.802,693.522C259.892,708.274 254.327,712.886 258.487,712.615C268.182,711.983 266.894,709.153 271.901,700.75C272.748,699.329 279.141,686.014 283.003,693.779C286.513,700.837 280.327,710.242 282.692,711.069C287.209,712.649 288.458,711.126 290.528,715.485C294.322,723.47 278.071,717.196 275.331,722.394C265.833,740.415 246.876,773.183 259.446,774.893C277.216,777.31 293.727,701.684 302.826,724.389C308.263,737.955 279.799,770.892 289.548,774.394C293.019,775.642 303.461,767.432 306.093,755.397C306.986,751.313 311.254,745.872 314.373,748.709C316.269,750.434 317.343,747.258 320.944,741.781C328.016,731.027 328.051,731.013 329.185,726.422C332.74,712.027 350.706,708.685 343.829,722.671C339.071,732.35 347.528,755.055 343.893,765.597C343.803,765.858 341.693,771.978 344.666,768.95C359.434,753.909 360.227,727.148 382.615,719.885C398.168,714.84 414.624,733.755 395.236,752.224C383.017,763.864 370.587,754.058 369.523,756.513C367.82,760.44 366.833,789.844 395.459,766.457C401.271,761.709 418.358,739.345 415.303,735.672C402.133,719.835 435.972,698.24 430.736,719.558C430.263,721.483 427.459,728.405 430.504,727.725C439.952,725.617 447.395,714.643 452.103,727.646C456.269,739.152 442.641,742.652 434.95,761.662C431.379,770.489 434.819,780.472 444.296,771.275C452.106,763.696 450.954,757.399 456.365,756.116C459.546,755.362 461.678,715.514 469.431,718.684C485.284,725.164 464.175,770.983 470.335,769.203C471.472,768.874 469.933,767.586 485.157,746.247C501.122,723.871 508.595,712.224 510.796,720.425C513.232,729.498 501.222,736.205 472.008,780.146C466.692,788.141 456.493,778.024 456.881,771.306C457.331,763.533 452.837,781.978 436.497,782.06C416.856,782.159 415.85,758.539 435.926,736.565C436.882,735.604 437.766,735.103 436.424,734.777C436.141,734.708 435.904,735.19 435.62,735.121ZM257.154,721.697L259.272,722.149C261.373,722.108 259.572,723.258 258.529,725.482C243.129,758.311 242.608,756.919 239,761.779C238.849,761.983 238.111,766.07 231.868,770.966C213.564,785.322 220.606,751.876 226.793,746.889C237.254,738.457 238.824,737.783 250.588,721.564C252.635,718.741 252.029,720.564 257.154,721.697ZM328.626,743.689C328.975,743.911 329.39,744.018 329.739,744.24C329.783,744.268 332.147,759.527 330.049,768.376C328.232,776.037 321.344,775.877 317.644,763.462C317.127,761.728 317.012,761.339 328.626,743.689ZM392.87,732.623C382.391,755.893 372.686,749.771 372.67,748.504C372.6,743.113 396.18,716.483 392.87,732.623ZM247.815,701.728C248.111,701.316 251.444,696.664 251.578,696.616C260.206,693.496 235.68,732.641 231.348,735.182C224.6,739.141 246.242,704.263 247.815,701.728Z" style="fill:rgb(180,26,48);fill-opacity:1;"/>
        <path d="M205.675,215.98C205.624,215.357 204.576,215.123 204.525,214.5C204.38,212.72 208.148,215.556 212.653,209.633C222.605,196.546 222.351,196.453 233.094,184.129C261.294,151.781 327.955,102.289 413.456,113.73C554.502,132.604 596.997,269.487 598.891,277.456C599.305,279.197 600.051,278.327 600.5,278.664L601.5,278.113L602.673,279.793C589.109,287.699 578.443,297.255 577.344,293.574C575.613,287.775 559.107,216.8 490.171,169.974C438.067,134.581 366.106,126.427 303.612,160.706C264.259,182.291 250.361,205.213 246.575,205.829C234.516,207.79 230.923,206.955 205.675,215.98Z" style="fill:rgb(16,120,63);fill-opacity:1;"/>
        <path d="M624.92,564.498C624.674,545.822 624.175,538.625 622.259,523.53C622.11,522.36 620.626,510.674 627.55,509.773C644.162,507.613 635.002,558.378 641.078,552.003C655.878,536.475 692.719,540.368 697.053,583.54C703.267,645.423 657.313,657.8 640.678,641.234C635.526,636.103 641.182,654.741 631.481,655.225C618.853,655.854 625.979,636.074 624.92,564.498ZM639.123,596.494C639.146,594.734 639.392,575.959 639.497,574.5C640.413,561.833 672.565,546.344 680.604,577.471C689.085,610.313 671.843,638.774 652.588,631.259C636.209,624.866 639.062,604.459 639.123,596.494Z" style="fill:rgb(22,146,79);fill-opacity:0.99;"/>
        <path d="M611.123,598.452C610.048,605.153 608.018,624.73 589.726,635.897C568.444,648.89 530.713,642.078 532.198,586.491C533.795,526.752 590.522,523.557 605.742,557.39C614.443,576.733 611.239,597.278 611.123,598.452ZM596.918,583.482C596.894,585.861 600.095,620.832 573.492,625.444C542.433,630.828 540.84,572.701 556.601,557.601C566.577,548.043 592.096,545.513 596.707,580.474C596.838,581.47 596.786,582.485 596.918,583.482Z" style="fill:rgb(21,147,79);fill-opacity:1;"/>
        <path d="M633.488,781.95C616.243,780.399 618.852,765.807 614.661,770.654C613.364,772.154 603.534,783.521 592.47,781.697C583.217,780.171 582.569,773.085 582.335,772.585C580.736,769.175 572.212,781.649 557.509,781.927C536.149,782.33 538.306,765.211 534.096,771.066C531.488,774.692 523.497,781.509 515.519,781.814C485.247,782.973 514.838,732.899 519.027,726.209C528.029,711.835 531.977,726.938 529.163,735.397C526.955,742.033 506.517,776.645 517.506,774.561C529.283,772.327 539.374,742.83 539.957,741.737C560.465,703.306 591.05,721.04 580.694,742.597C578.303,747.574 576.501,753.996 571.462,751.572C560.656,746.375 573.185,730.007 570.898,728.01C564.424,722.358 536.48,767.952 554.493,774.52C566.26,778.811 579.632,761.174 581.116,759.217C593.01,743.53 599.817,715.156 607.177,720.963C618.791,730.125 595.206,757.187 594.778,769.514C594.478,778.149 602.027,775.178 608.998,764.811C619.707,748.885 618.105,739.359 629.841,727.845C648.53,709.509 660.333,726.751 661.313,727.685C667.238,733.33 665.028,741.797 666.474,743.526C668.458,745.897 667.739,746.37 665.565,748.566C661.244,752.932 657.479,781.074 633.488,781.95ZM626.968,765.511C627.138,763.591 628.048,753.298 634.895,742.76C640.808,733.659 642.35,734.612 642.611,735.423C644.761,742.117 645.238,741.879 650.35,746.664C654.79,750.821 628.652,789.761 626.968,765.511ZM655.035,735.488C654.999,735.864 654.043,745.635 651.426,738.536C649.289,732.737 653.006,725.901 654.806,732.416C654.872,732.654 654.823,732.644 655.035,735.488Z" style="fill:rgb(180,27,49);fill-opacity:1;"/>
        <path d="M61.939,648.602C65.175,640.626 70.088,644.409 73.581,642.596C75.133,641.791 77.39,605.503 76.698,537.5C76.642,531.957 78.047,529.238 72.539,529.857C60.363,531.224 60.5,517.413 68.389,514.214C77.333,510.589 110.317,513.855 113.52,514.352C125.422,516.2 155.069,520.788 150.699,535.574C148.644,542.527 140.451,538.618 139.629,538.226C120.078,528.896 92.73,529.831 92.706,529.846C91.101,530.848 91.722,574.974 91.89,575.247C92.398,576.076 98.89,576.031 99.502,576.027C129.51,575.821 131.49,574.135 133.439,579.524C139.157,595.332 107.762,591.951 93.444,592.075C91.121,592.095 91.305,593.903 91.289,594.485C89.965,641.138 87.356,643.865 91.463,643.876C143.655,644.022 146.678,625.384 154.323,629.851C168.241,637.983 149.371,658.814 94.483,660.101C67.476,660.734 60.977,660.661 61.939,648.602Z" style="fill:rgb(22,147,80);fill-opacity:1;"/>
        <path d="M229.053,604.486C228.182,621.117 225.107,648.317 219.425,653.415C215.889,656.587 209.454,654.974 209.449,647.507C209.446,641.637 203.871,650.987 189.552,649.057C152.042,644.001 158.888,572.963 200.44,578.998C207.464,580.018 212.589,584.866 213.439,585.669C216.597,588.656 212.953,572.366 212.073,569.623C211.444,567.662 205.757,549.943 190.516,555.541C185.472,557.394 178.902,566.336 173.733,558.361C162.757,541.429 225.754,515.329 228.89,585.481C229.319,595.067 229.193,594.968 229.053,604.486ZM213.898,609.464C213.922,610.758 216.993,632.079 198.513,634.617C175.199,637.819 174.21,598.379 192.394,594.116C195.506,593.387 200.786,592.378 206.32,595.768C211.729,599.082 213.642,608.239 213.898,609.464Z" style="fill:rgb(22,147,80);fill-opacity:1;"/>
        <path d="M94.197,711.176C93.965,711.266 92.513,714.414 91.7,715.732C91.271,716.428 91.407,716.368 86.975,724.786C86.36,725.953 84.788,728.938 79.004,739.224C62.911,767.839 58.1,780.359 57.084,782.261C54.965,786.229 49.921,782.694 48.924,776.441C46.25,759.667 93.014,688.427 96.037,684.173C104.644,672.062 111.122,689.6 111.198,693.523C111.258,696.562 111.276,697.515 102.834,730.581C97.668,750.818 94.018,758.339 98.274,753.26C100.565,750.527 98.302,748.968 123.61,716.578C147.38,686.156 148.434,676.164 155.093,680.981C165.052,688.187 157.119,704.537 156.232,706.366C126.071,768.529 128.923,773.537 124.225,782.349C122.158,786.225 110.149,781.798 117.842,759.611C128.862,727.827 152.789,691.894 133.574,719.569C106.123,759.108 97.701,775.149 95.028,780.24C91.414,787.125 84.858,778.364 83.788,776.346C78.287,765.978 92.76,718.899 93.162,716.496C93.496,714.496 94.444,711.365 94.197,711.176Z" style="fill:rgb(183,26,47);fill-opacity:1;"/>
        <path d="M500.871,539.443C500.151,534.931 500.686,528.551 495.531,528.183C470.428,526.391 461.418,538.594 457.321,528.58C449.078,508.434 507.063,508.916 525.425,517.66C535.458,522.438 532.538,537.315 519.4,532.812C511.466,530.093 516.068,536.272 517.052,544.548C520.608,574.452 523.49,613.747 508.161,642.303C492.958,670.624 444.916,678.231 440.236,622.516C438.145,597.615 452.083,598.192 455.049,605.686C456.399,609.094 451.235,639.571 467.396,645.734C493.001,655.499 513.842,617.92 500.871,539.443Z" style="fill:rgb(21,147,79);fill-opacity:1;"/>
        <path d="M273.527,535.929C306.983,535.829 302.789,562.675 294.453,563.019C289.017,563.244 287.216,558.27 286.173,556.728C281.055,549.167 270.049,549.389 265.875,556.721C255.287,575.316 279.647,590.144 284.244,594.748C301.708,612.236 294.642,644.803 271.539,647.785C239.247,651.955 232.063,614.084 247.503,612.963C252.701,612.585 254.162,620.671 254.318,621.533C257.033,636.562 272.684,632.966 276.01,628.14C285.942,613.726 265.891,601.381 263.61,599.371C235.96,574.998 248.87,538.625 273.527,535.929Z" style="fill:rgb(21,146,80);fill-opacity:1;"/>
        <path d="M313.416,535.888C322.252,539.685 316.987,543.893 337.868,586.289C340.395,591.419 341.312,584.544 341.952,582.641C353.175,549.307 350.359,527.253 361.34,531.969C369.482,535.465 367.916,550.224 353.692,591.573C351.997,596.5 328.927,655.172 323.39,659.342C322.573,659.957 306.722,663.742 315.97,641.704C319.487,633.322 333.125,606.76 332.501,604.5C331.896,602.305 320.523,588.123 308.25,554.594C306.382,549.49 302.711,540.877 308.648,536.732C310.12,535.704 313.03,535.866 313.416,535.888Z" style="fill:rgb(22,145,79);fill-opacity:1;"/>
        <path d="M674.54,748.456C675.583,749.72 675.983,749.368 676.13,749.138C676.343,748.807 682.533,739.12 683.074,738.239C692.181,723.43 688.179,720.491 695.753,715.881C702.642,711.688 707.165,715.438 704.716,720.602C696.806,737.278 708.5,751.968 703.533,766.506C703.467,766.7 701.833,772.508 705.741,767.807C715.012,756.654 717.559,747.643 720.041,754.643C724.709,767.807 692.151,794.174 672.068,775.969C658.532,763.698 668.563,742.025 674.54,748.456ZM690.054,750.542C690.374,754.616 692.249,769.302 687.272,773.18C683.879,775.824 673.37,766.275 679.127,758.231C685.59,749.201 689.383,740.671 689.688,745.428C689.855,748.047 689.87,747.978 690.054,750.542Z" style="fill:rgb(179,29,51);fill-opacity:0.99;"/>
        <path d="M386.799,590.28C386.36,589.36 382.702,581.697 388.599,577.652C390.575,576.296 391.153,575.899 418.494,575.592C423.689,575.534 424.147,580.874 424.203,581.531C425.244,593.655 413.692,591.634 409.506,591.755C391.134,592.286 390.503,593.563 386.799,590.28Z" style="fill:rgb(24,146,81);fill-opacity:0.99;"/>
        <path d="M78.884,303.56C79.136,302.187 81.376,289.974 82.299,286.447C83.523,281.774 88.561,283.364 105.506,282.858C106.386,282.832 112.39,281.301 108.532,285.525C78.31,318.623 79.508,322.288 77.415,323.258C75.981,323.923 75.625,322.465 78.884,303.56Z" style="fill:rgb(24,145,82);fill-opacity:0.99;"/>
        <path d="M618.446,719.424C603.448,726.507 602.472,696.121 616.536,703.437C617.152,703.757 620.522,705.51 621.594,710.48C622.586,715.084 618.97,718.875 618.446,719.424Z" style="fill:rgb(172,24,44);fill-opacity:1;"/>
        <path d="M315.054,712.503C312.702,730.258 292.818,714.638 301.548,704.542C304.951,700.607 309.525,703.356 309.568,703.377C313.547,705.367 314.878,711.669 315.054,712.503Z" style="fill:rgb(171,24,44);fill-opacity:1;"/>
        <path d="M541.165,710.559C541.074,730.138 520.224,717.733 527.364,705.416C529.583,701.588 538.026,700.022 541.165,710.559Z" style="fill:rgb(174,25,45);fill-opacity:1;"/>
        <path d="M435.62,735.121C435.904,735.19 436.141,734.708 436.424,734.777C437.766,735.103 436.882,735.604 435.926,736.565C435.824,736.084 435.722,735.602 435.62,735.121Z" style="fill:rgb(231,107,125);fill-opacity:0.78;"/>
    </g>
</svg>
